#!OML:ASF H:\charlestonDancing\Project 1\Capture day 1\Session 1\femaleDancer.ASF
:FULLY-SPECIFIED
:DEGREES
222
root 1.86771 17.4099 -1.34376 -167.487 -90.3557 171.891
lowerback 17.5407 1.60176 1.16742
upperback 3.48821 2.06297 -0.907791
thorax -5.99962 0.899528 -2.07979
lowerneck 0.366146 0.506887 2.32611
upperneck 6.31767 0.649592 -1.26326
head 1.9212 0.324749 -0.779768
rclavicle 2.12451e-014 7.40473e-015
rhumerus -48.1763 -3.96764 -76.0882
rradius 39.9119
rwrist 14.7069
rhand -37.1456 -40.7529
rfingers 7.12502
rthumb -10.2151 -70.4849
lclavicle 2.12451e-014 7.40473e-015
lhumerus -31.8692 23.1643 9.66404
lradius 150.656
lwrist 6.0604
lhand 0.654441 17.4671
lfingers 7.12502
lthumb 26.2171 45.6763
rfemur -21.7954 -8.50944 20.0918
rtibia 83.3256
rfoot -13.8932 1.28726
rtoes -19.2809
lfemur -24.7948 -3.86291 -27.5684
ltibia 42.2617
lfoot -5.97233 -15.499
ltoes 9.76191
223
root 1.82214 17.3882 -1.36627 -87.7167 -86.3876 91.3743
lowerback 18.3364 2.04032 -2.89324
upperback 3.86327 1.7643 -1.74963
thorax -6.13767 0.793026 -0.625243
lowerneck 0.692765 0.491979 2.13127
upperneck 5.725 0.645487 -1.3073
head 1.6715 0.319313 -0.75782
rclavicle 1.59276e-014 -1.81391e-014
rhumerus -47.9473 -4.16829 -76.5133
rradius 43.7289
rwrist 13.5794
rhand -36.5636 -41.7997
rfingers 7.12502
rthumb -9.65357 -71.5585
lclavicle 1.59276e-014 -1.81391e-014
lhumerus -33.4437 25.0087 7.90624
lradius 151.109
lwrist 7.43255
lhand 1.55277 17.5528
lfingers 7.12502
lthumb 27.0768 45.6312
rfemur -25.6644 -8.96788 15.2254
rtibia 90.6885
rfoot -16.0458 1.97505
rtoes -17.1773
lfemur -23.3384 -3.03598 -31.6721
ltibia 41.5202
lfoot -5.29973 -15.7017
ltoes 9.53927
224
root 1.77219 17.4277 -1.37311 -94.9756 -86.793 98.3055
lowerback 18.7138 2.09508 -2.48159
upperback 4.09909 1.89856 -1.60877
thorax -6.07891 0.844284 -0.745252
lowerneck 1.22679 0.395459 1.8137
upperneck 5.08203 0.526764 -1.22291
head 1.36969 0.257444 -0.676127
rclavicle 1.56791e-014 -3.03147e-014
rhumerus -47.6308 -4.44882 -77.0138
rradius 47.2929
rwrist 13.0847
rhand -35.3846 -43.0144
rfingers 7.12502
rthumb -8.51595 -72.8227
lclavicle 1.56791e-014 -3.03147e-014
lhumerus -34.6735 26.2771 7.17529
lradius 151.397
lwrist 7.85588
lhand 2.06427 17.3514
lfingers 7.12502
lthumb 27.5661 45.3528
rfemur -29.5197 -8.60734 15.5586
rtibia 96.2939
rfoot -18.1024 1.81117
rtoes -16.0333
lfemur -22.4866 -2.0677 -31.2114
ltibia 40.7351
lfoot -4.78648 -15.7168
ltoes 8.14009
225
root 1.72912 17.4876 -1.36935 -104.056 -87.04 106.852
lowerback 19.3265 2.15788 -1.91747
upperback 4.40656 2.05285 -1.55532
thorax -6.05677 0.899202 -1.05683
lowerneck 1.56187 0.287421 1.67586
upperneck 4.86401 0.389854 -1.29621
head 1.24123 0.186408 -0.675604
rclavicle 8.43592e-015 -1.99033e-014
rhumerus -46.957 -4.60661 -77.715
rradius 50.351
rwrist 12.3936
rhand -35.1195 -44.0992
rfingers 7.12502
rthumb -8.26009 -73.9177
lclavicle 8.43592e-015 -1.99033e-014
lhumerus -35.6294 27.0874 7.33429
lradius 151.61
lwrist 7.54523
lhand 2.70122 16.8633
lfingers 7.12502
lthumb 28.175 44.7659
rfemur -32.943 -8.11025 15.7655
rtibia 100.776
rfoot -20.3535 1.88898
rtoes -14.1204
lfemur -21.3148 -1.21488 -30.8637
ltibia 39.7664
lfoot -4.41773 -15.5116
ltoes 6.73309
226
root 1.68868 17.5718 -1.35797 -117.31 -87.3735 119.735
lowerback 19.7041 2.17344 -1.08486
upperback 4.73576 2.21779 -1.4353
thorax -5.87391 0.95924 -1.44471
lowerneck 1.36208 0.210354 1.58552
upperneck 5.27514 0.290983 -1.52086
head 1.40417 0.130019 -0.733041
rclavicle 8.5788e-015 -1.16786e-015
rhumerus -45.8303 -4.32903 -78.5533
rradius 52.938
rwrist 11.5457
rhand -35.3156 -44.8518
rfingers 7.12502
rthumb -8.44932 -74.6628
lclavicle 8.5788e-015 -1.16786e-015
lhumerus -36.6325 27.6053 8.0777
lradius 151.813
lwrist 6.83722
lhand 3.43661 16.2404
lfingers 7.12502
lthumb 28.8777 44.0251
rfemur -36.4715 -7.17319 16.5264
rtibia 103.444
rfoot -21.8317 0.749111
rtoes -15.7623
lfemur -20.3684 -0.697082 -30.2794
ltibia 38.9806
lfoot -4.08653 -14.9877
ltoes 6.19176
227
root 1.64855 17.6674 -1.34594 -129.424 -87.4901 131.693
lowerback 19.8243 2.16 -0.455874
upperback 5.05925 2.31725 -1.2705
thorax -5.5684 0.9949 -1.6446
lowerneck 1.00799 0.100226 1.25635
upperneck 5.73255 0.145068 -1.62149
head 1.60744 0.0458361 -0.713261
rclavicle -2.95195e-014 4.17448e-015
rhumerus -44.4955 -3.53362 -79.4005
rradius 55.0413
rwrist 11.5108
rhand -35.5163 -45.8095
rfingers 7.12502
rthumb -8.64304 -75.6126
lclavicle -2.95195e-014 4.17448e-015
lhumerus -38.0764 27.7414 9.10356
lradius 152.068
lwrist 5.92255
lhand 3.74077 15.253
lfingers 7.12502
lthumb 29.1682 42.9877
rfemur -39.6031 -5.68013 17.0975
rtibia 104.351
rfoot -23.1206 0.769167
rtoes -16.2768
lfemur -19.5986 -0.481351 -29.8858
ltibia 38.0685
lfoot -3.80927 -13.9367
ltoes 3.97795
